<svg width="32" height="32" viewBox="0 0 32 32" fill="none" xmlns="http://www.w3.org/2000/svg">
<g clip-path="url(#clip0_537_17962)">
<path d="M14.5997 16.187L13.6357 20.052C14.8257 20.352 18.4967 21.526 19.0357 19.346C19.6077 17.072 15.7917 16.484 14.5997 16.187Z" fill="url(#paint0_linear_537_17962)"/>
<path d="M15.917 10.9121L15.043 14.4121C16.034 14.6591 19.089 15.6671 19.584 13.6841C20.1 11.6201 16.908 11.1591 15.917 10.9121Z" fill="url(#paint1_linear_537_17962)"/>
<path d="M16 0C12.8355 0 9.74207 0.938384 7.11088 2.69649C4.4797 4.45459 2.42894 6.95345 1.21793 9.87706C0.0069325 12.8007 -0.309921 16.0177 0.307443 19.1214C0.924806 22.2251 2.44866 25.0761 4.6863 27.3137C6.92394 29.5513 9.77487 31.0752 12.8786 31.6926C15.9823 32.3099 19.1993 31.9931 22.1229 30.7821C25.0466 29.5711 27.5454 27.5203 29.3035 24.8891C31.0616 22.2579 32 19.1645 32 16C32 11.7565 30.3143 7.68687 27.3137 4.68629C24.3131 1.68571 20.2435 0 16 0ZM23.053 13.72C23.0166 14.3372 22.7769 14.9251 22.3714 15.3918C21.9658 15.8585 21.4171 16.1779 20.811 16.3C22.386 17.12 23.188 18.378 22.424 20.558C21.477 23.266 19.224 23.494 16.231 22.928L15.505 25.84L13.749 25.4L14.466 22.527C14.011 22.414 13.546 22.294 13.066 22.164L12.347 25.051L10.593 24.613L11.32 21.7L7.78401 20.8L8.65601 18.79C8.65601 18.79 9.94901 19.134 9.93201 19.109C10.0934 19.1598 10.2683 19.1444 10.4184 19.0662C10.5684 18.988 10.6812 18.8534 10.732 18.692L12.703 10.792C12.7276 10.5485 12.6556 10.3051 12.5027 10.114C12.3498 9.92289 12.128 9.79939 11.885 9.77C11.912 9.752 10.609 9.453 10.609 9.453L11.08 7.58L14.621 8.457L15.34 5.574L17.095 6.012L16.395 8.838C16.866 8.946 17.34 9.054 17.802 9.169L18.502 6.361L20.257 6.799L19.538 9.683C21.75 10.447 23.371 11.591 23.053 13.72Z" fill="url(#paint2_linear_537_17962)"/>
</g>
<defs>
<linearGradient id="paint0_linear_537_17962" x1="16.047" y1="15.0879" x2="19.2032" y2="16.5562" gradientUnits="userSpaceOnUse">
<stop stop-color="#40C4FF"/>
<stop offset="1" stop-color="#2979FF"/>
</linearGradient>
<linearGradient id="paint1_linear_537_17962" x1="17.0739" y1="9.93022" x2="19.7858" y2="11.1196" gradientUnits="userSpaceOnUse">
<stop stop-color="#40C4FF"/>
<stop offset="1" stop-color="#2979FF"/>
</linearGradient>
<linearGradient id="paint2_linear_537_17962" x1="14.1372" y1="-7.90362" x2="33.8155" y2="-0.440327" gradientUnits="userSpaceOnUse">
<stop stop-color="#40C4FF"/>
<stop offset="1" stop-color="#2979FF"/>
</linearGradient>
<clipPath id="clip0_537_17962">
<rect width="32" height="32" fill="white"/>
</clipPath>
</defs>
</svg>
