<svg class="calc__curr__item__sign" width="24" height="24" viewBox="0 0 24 24" fill="none" xmlns="http://www.w3.org/2000/svg">
<path fill-rule="evenodd" clip-rule="evenodd" d="M9.0721 2.93573V3.87152L8.38048 3.91134C8.00011 3.93329 7.30889 3.95122 6.84443 3.95122H6V11.9615V20.0481H6.21334C6.41007 20.0481 7.02187 20.0477 7.74939 20.0481L9.0721 20.0488V21.0244V22H9.95391H10.8357V21.0244V20.0488H11.1472H11.4586L11.4743 21.0091L11.49 21.9695H12.3718H13.2536L13.2692 20.9886L13.2847 20.0077L13.8709 19.9391C14.1934 19.9013 14.6728 19.7976 14.9363 19.7085C16.6932 19.1148 17.6617 17.9624 17.9526 16.1197C18.0986 15.1946 17.8969 13.9441 17.4912 13.2585C17.1193 12.6301 16.3565 11.9122 15.7606 11.6297L15.4952 11.5038L15.8486 11.259C16.9301 10.5098 17.435 9.45171 17.435 7.9347C17.435 6.43024 16.7453 5.26634 15.4323 4.55494C15.0346 4.33951 14.2797 4.09994 13.8219 4.0439C13.2316 3.97165 13.282 4.07177 13.282 2.97152V2H12.3718H11.4615V2.94512V3.89024H11.1486H10.8357V2.94512V2H9.95391H9.0721V2.93573ZM13.5603 6.47012C13.7266 6.50391 14.7378 6.72201 14.9441 7.36146C15.075 7.76713 15.2746 8.88873 14.609 9.75587C14.136 10.2037 13.7656 10.4806 12.9885 10.4806C12.9885 10.4806 12.7098 10.4806 10.7927 10.4806H8.39493V8.25177V6.3256L10.7646 6.34676C13.3879 6.36718 13.4056 6.4387 13.5603 6.47012ZM14.0109 13.0907C14.564 13.2828 14.7432 13.4338 14.985 13.7863C15.3916 14.3788 15.4546 15.165 15.2071 16.0209C14.9363 16.7628 14.7627 16.9263 14.497 17.155C13.9981 17.5844 13.5265 17.6056 13.4244 17.6056C13.4244 17.6056 11.9125 17.6029 9.85435 17.6056L8.39493 17.608V15.4067V12.8684L10.9068 12.8989L13.0556 12.9238C13.381 12.9275 13.7035 12.9839 14.0109 13.0907Z" fill="#3579f4"></path>
</svg>