<svg class="calc__curr__item__sign" width="24" height="24" viewBox="0 0 24 24" fill="none" xmlns="http://www.w3.org/2000/svg">
<path d="M11.262 22V19.5374C10.4026 19.5214 9.60915 19.4338 8.8815 19.2744C8.16078 19.107 7.53708 18.8918 7.0104 18.6288V16.0825C7.54401 16.3694 8.20236 16.6284 8.98545 16.8595C9.76854 17.0907 10.5274 17.2222 11.262 17.254V12.7711C10.2571 12.3806 9.43936 11.9741 8.80873 11.5517C8.18503 11.1293 7.72765 10.6392 7.43659 10.0813C7.14553 9.51544 7 8.83802 7 8.04901C7 7.2361 7.17672 6.53875 7.53015 5.95696C7.89051 5.3672 8.38947 4.90098 9.02703 4.55828C9.67152 4.21558 10.4165 4.01235 11.262 3.9486V2H12.6133V3.91273C13.3825 3.93664 14.0929 4.03626 14.7443 4.2116C15.4026 4.37896 16.0298 4.61407 16.6258 4.91692L15.8669 7.14047C15.3472 6.90137 14.8067 6.70612 14.2453 6.55469C13.684 6.40327 13.14 6.29966 12.6133 6.24387V10.6192C13.4588 10.938 14.2107 11.2807 14.869 11.6473C15.5343 12.0139 16.0541 12.4762 16.4283 13.0341C16.8094 13.584 17 14.3052 17 15.1978C17 16.3694 16.6258 17.3377 15.8773 18.1028C15.1289 18.8599 14.0409 19.3142 12.6133 19.4656V22H11.262ZM12.6133 17.1584C13.2786 17.0628 13.7741 16.8635 14.0998 16.5607C14.4255 16.2499 14.5884 15.8474 14.5884 15.3533C14.5884 15.0185 14.5191 14.7356 14.3805 14.5045C14.2488 14.2734 14.0374 14.0661 13.7464 13.8828C13.4622 13.6995 13.0845 13.5202 12.6133 13.3449V17.1584ZM11.262 10.0335V6.29169C10.86 6.33951 10.5204 6.43515 10.2432 6.5786C9.96604 6.72206 9.75814 6.90934 9.61954 7.14047C9.48094 7.37159 9.41164 7.64654 9.41164 7.96533C9.41164 8.316 9.47401 8.61486 9.59875 8.86192C9.72349 9.10899 9.921 9.32417 10.1913 9.50747C10.4685 9.69077 10.8254 9.86611 11.262 10.0335Z" fill="#3579f4"></path>
</svg>