<svg width="24" height="24" viewBox="0 0 24 24" fill="none" xmlns="http://www.w3.org/2000/svg">
<path fill-rule="evenodd" clip-rule="evenodd" d="M6.2002 2.25C5.09563 2.25 4.2002 3.14543 4.2002 4.25V19.75C4.2002 20.8546 5.09562 21.75 6.20019 21.75H17.8002C18.9048 21.75 19.8002 20.8546 19.8002 19.75V4.25C19.8002 3.14543 18.9048 2.25 17.8002 2.25H6.2002ZM16.6 6H7.4C7.17909 6 7 6.17909 7 6.4V9.6C7 9.82091 7.17909 10 7.4 10H16.6C16.8209 10 17 9.82091 17 9.6V6.4C17 6.17909 16.8209 6 16.6 6ZM7.4 12H8.6C8.82091 12 9 12.1791 9 12.4V13.6C9 13.8209 8.82091 14 8.6 14H7.4C7.17909 14 7 13.8209 7 13.6V12.4C7 12.1791 7.17909 12 7.4 12ZM12.6 12H11.4C11.1791 12 11 12.1791 11 12.4V13.6C11 13.8209 11.1791 14 11.4 14H12.6C12.8209 14 13 13.8209 13 13.6V12.4C13 12.1791 12.8209 12 12.6 12ZM15.4 12H16.6C16.8209 12 17 12.1791 17 12.4V13.6C17 13.8209 16.8209 14 16.6 14H15.4C15.1791 14 15 13.8209 15 13.6V12.4C15 12.1791 15.1791 12 15.4 12ZM16.6 16H15.4C15.1791 16 15 16.1791 15 16.4V17.6C15 17.8209 15.1791 18 15.4 18H16.6C16.8209 18 17 17.8209 17 17.6V16.4C17 16.1791 16.8209 16 16.6 16ZM11.4 16H12.6C12.8209 16 13 16.1791 13 16.4V17.6C13 17.8209 12.8209 18 12.6 18H11.4C11.1791 18 11 17.8209 11 17.6V16.4C11 16.1791 11.1791 16 11.4 16ZM8.6 16H7.4C7.17909 16 7 16.1791 7 16.4V17.6C7 17.8209 7.17909 18 7.4 18H8.6C8.82091 18 9 17.8209 9 17.6V16.4C9 16.1791 8.82091 16 8.6 16Z" fill="#3579F4"></path>
</svg>