<svg width="16" height="16" viewBox="0 0 16 16" fill="none" xmlns="http://www.w3.org/2000/svg">
<path d="M8.2704 0C7.72523 0 7.25222 0.376283 7.12963 0.907486L7.10678 1.00653C7.0264 1.35483 6.806 1.65459 6.49751 1.83517L5.69072 2.30744C4.6652 2.90774 4.01871 3.99156 3.97775 5.17915L3.87555 8.14331C3.84492 9.03132 3.55522 9.891 3.04211 10.6164L2.45767 11.4427C2.01196 12.0729 1.88328 12.8739 2.1092 13.6119H14.4316C14.6575 12.8739 14.5288 12.0729 14.0831 11.4427L13.4987 10.6164C12.9856 9.891 12.6959 9.03132 12.6653 8.14331L12.563 5.17915C12.5221 3.99156 11.8756 2.90774 10.8501 2.30744L10.0433 1.83517C9.7348 1.65459 9.51439 1.35483 9.43402 1.00653L9.41116 0.907486C9.28858 0.376283 8.81556 0 8.2704 0Z" fill="#008EF8"></path>
<path d="M5.91642 14.4716C6.33288 15.3762 7.21364 16 8.23284 16C9.25203 16 10.1328 15.3762 10.5493 14.4716H5.91642Z" fill="#008EF8"></path>
</svg>