<?xml version="1.0" encoding="utf-8"?>
<!-- Generator: Adobe Illustrator 26.5.0, SVG Export Plug-In . SVG Version: 6.00 Build 0)  -->
<svg version="1.1" id="Слой_1" xmlns="http://www.w3.org/2000/svg" xmlns:xlink="http://www.w3.org/1999/xlink" x="0px" y="0px"
	 viewBox="0 0 100 100" style="enable-background:new 0 0 100 100;" xml:space="preserve">
<style type="text/css">
	.st0{fill:#FFFFFF;}
	.st1{fill:#3579F4;}
</style>
<path class="st0" d="M90.3,98.6H10.1c-4.5,0-8.2-3.7-8.2-8.2V10.1c0-4.5,3.7-8.2,8.2-8.2h80.3c4.5,0,8.2,3.7,8.2,8.2v80.3
	C98.5,94.9,94.8,98.6,90.3,98.6z"/>
<g>
	<path class="st1" d="M82.4,72.2c-1.2-0.6-2.3-1.3-3.3-2c-4-2.7-7.5-6.1-10.3-10c-0.3,0-0.5,0.1-0.8,0.1c-4.1,0.5-8.1,1.7-11.8,3.6
		c0.4,0.7,0.8,1.3,1.3,2C63,74.5,71,81.2,80.6,85.3c0.8,0.4,1.7,0.7,2.5,1c1.9-0.9,3.8-2,5.5-3.3c2.5-1.9,4.7-4.1,6.5-6.5
		c-3.9-0.6-7.6-1.7-11-3.4C83.5,72.8,82.9,72.5,82.4,72.2z"/>
	<path class="st1" d="M54.1,48.6L54.1,48.6c0.5,0.2,0.9,0.3,1.4,0.5c3.8,1.2,7.9,1.8,12,1.7c0.3-0.9,0.7-1.9,0.9-2.9
		c1.4-5.2,1.4-10.7,0-15.9c-1.3-5.1-4-9.9-7.9-13.9c-1.1-1.1-2.3-2.2-3.6-3.1c2.3,10.2,1.8,20.8-1.6,30.7
		C54.9,46.7,54.5,47.6,54.1,48.6z"/>
	<path class="st1" d="M41.2,20.9c0.2,1.3,0.4,2.6,0.4,3.9c0.3,4.8-0.3,9.7-1.7,14.4c3,3.3,6.6,5.9,10.5,7.8c0.4-0.9,0.7-1.8,1-2.7
		c3.4-9.8,3.7-20.3,1.1-30.3c-0.2-0.7-0.4-1.4-0.6-2.1c-1.8-0.9-3.8-1.6-5.7-2.1c-3-0.8-6.1-1.1-9.1-1c1.4,2.7,2.5,5.5,3.3,8.5
		C40.8,18.5,41,19.7,41.2,20.9z"/>
	<path class="st1" d="M34.1,56.4c0.9-0.1,1.7-0.3,2.6-0.4c-0.1-1-0.3-2.1-0.6-3.1c-0.7-3.1-1.8-6.2-3.4-9.1
		c-0.9,0.1-1.7,0.3-2.6,0.5c-5.1,1.2-10.1,3.6-14.2,7.5c-4.2,3.9-7.1,8.7-8.7,13.8c-0.4,1.2-0.6,2.4-0.9,3.6
		c7-6,15.3-10.1,24.2-12.1C31.7,56.8,32.9,56.6,34.1,56.4z"/>
	<path class="st1" d="M18.3,80.7c1-0.8,2.1-1.6,3.2-2.3c3.9-2.5,8.2-4.3,12.8-5.3c0.2,0,0.4-0.1,0.6-0.1c1.5-4.2,2.2-8.6,2.1-13.1
		c-0.8,0.1-1.5,0.2-2.3,0.3c-1.1,0.2-2.2,0.4-3.2,0.6c-9,2-17.2,6.3-24,12.6c-0.5,0.5-1,0.9-1.5,1.4l0,0c0,2.2,0.3,4.4,0.8,6.5
		c0.7,2.9,1.7,5.7,3.2,8.4c1.8-2.7,4-5.2,6.3-7.3C16.9,81.8,17.6,81.2,18.3,80.7z"/>
	<path class="st1" d="M77.7,88.3C68,83.9,59.9,76.9,54.1,68c-0.5-0.7-0.9-1.5-1.4-2.2c-0.6,0.4-1.2,0.8-1.8,1.3
		c-2.8,2-5.3,4.5-7.4,7.3c0.5,0.8,1.1,1.7,1.7,2.5c3.5,4.6,7.9,8,12.9,10c5,2.1,10.4,2.8,15.7,2.2C75.1,88.8,76.4,88.6,77.7,88.3z"
		/>
</g>
</svg>
