<?xml version="1.0" encoding="utf-8"?>
<!-- Generator: Adobe Illustrator 26.5.0, SVG Export Plug-In . SVG Version: 6.00 Build 0)  -->
<svg version="1.1" id="Слой_1" xmlns="http://www.w3.org/2000/svg" xmlns:xlink="http://www.w3.org/1999/xlink" x="0px" y="0px"
	 viewBox="0 0 600 200" style="enable-background:new 0 0 600 200;" xml:space="preserve">
<style type="text/css">
	.st0{display:none;}
	.st1{display:inline;fill:#272C3C;}
	.st2{display:inline;fill:#3579F4;}
	.st3{display:inline;fill:#3579F4;stroke:#3579F4;stroke-width:7.999999e-03;stroke-miterlimit:200;}
	.st4{fill:#3579F4;}
	.st5{fill:#FFFFFF;}
</style>
<g class="st0">
	<path class="st1" d="M161.5,71.9c3.2,0.1,6.6,0.2,10.1,0.5s7,0.8,10.4,1.5l-0.8,6.6c-2.7-0.1-5.8-0.1-9.3-0.2
		c-3.5-0.1-6.9-0.1-10.2-0.1c-2,0-3.7,0.1-5.1,0.2c-1.4,0.1-2.6,0.4-3.4,0.8c-0.9,0.4-1.5,1.1-1.9,1.9c-0.4,0.9-0.6,2-0.6,3.6
		c0,2.3,0.6,4,1.7,5c1.2,1,3,1.8,5.7,2.3l12.8,3.1c5.1,1.3,8.7,3.2,10.6,5.7s2.9,5.8,2.9,9.9c0,3.1-0.4,5.6-1.3,7.6
		c-0.9,2-2.2,3.5-4,4.6c-1.8,1.1-4.2,1.9-7.1,2.3c-2.9,0.5-6.5,0.7-10.6,0.7c-2.1,0-5.1-0.1-8.8-0.3c-3.7-0.2-8-0.7-12.7-1.6l0.8-7
		c3.7,0.1,6.8,0.2,9.3,0.3s4.7,0.1,6.5,0.1s3.5,0,5.1,0c2.9,0,5.1-0.2,6.8-0.5c1.6-0.3,2.8-1,3.4-2c0.7-1,1-2.4,1-4.3
		c0-1.6-0.2-2.9-0.7-3.8c-0.5-0.9-1.2-1.6-2.3-2.2c-1.1-0.5-2.4-1-4.1-1.3l-13.2-3.4c-4.9-1.3-8.3-3.1-10.3-5.6s-3-5.7-3-9.9
		c0-3.1,0.4-5.6,1.3-7.5c0.9-2,2.2-3.4,4-4.5c1.8-1,4.1-1.7,7-2.1C154.1,72.1,157.5,71.9,161.5,71.9z"/>
	<path class="st1" d="M207.3,72.9v16c0,1.7-0.1,3.3-0.4,4.9c-0.3,1.6-0.7,3.2-1.3,4.8c0.4,1.5,0.8,3.1,1.2,4.7
		c0.3,1.6,0.5,3.1,0.5,4.6v19h-11.7v-54C195.6,72.9,207.3,72.9,207.3,72.9z M215.6,95.2v7.1h-12v-7.1H215.6z M243.9,72.9l-17.7,22
		c-0.6,0.8-1.3,1.6-2,2.2c-0.7,0.6-1.4,1.2-2.3,1.7V99c0.9,0.5,1.8,1.1,2.6,1.9c0.9,0.7,1.6,1.5,2.2,2.3l18.4,23.7H232l-21.3-28.2
		l20.5-25.7h12.7V72.9z"/>
	<path class="st1" d="M264.9,72.9v41.5c0,1.5,0.5,2.6,1.5,3.4s2.4,1.1,4.2,1.1h22.8l0.6,7.4c-4.3,0.3-8.7,0.5-13.3,0.6
		s-9.2,0.1-13.7,0.1c-4.8,0-8.2-1-10.5-3.1c-2.2-2-3.3-4.6-3.3-7.7V72.9H264.9z"/>
	<path class="st1" d="M331.3,72.9c1,0,1.9,0.2,2.6,0.7c0.8,0.5,1.3,1.1,1.6,1.9l19.6,51.4h-12l-14.8-41.6c-0.3-0.8-0.5-1.7-0.8-2.5
		c-0.3-0.8-0.5-1.6-0.7-2.4h-2.6c-0.2,0.8-0.4,1.6-0.7,2.4c-0.3,0.8-0.5,1.7-0.8,2.5L308,126.9h-12l19.6-51.4
		c0.2-0.8,0.8-1.4,1.5-1.9c0.8-0.5,1.7-0.7,2.7-0.7H331.3z M342.2,103.9v7.7h-33.3v-7.7H342.2z"/>
	<path class="st1" d="M387.2,72.2c4.9,0,9,0.5,12.4,1.4c3.4,0.9,6.2,2.4,8.3,4.5c2.1,2.1,3.6,5,4.6,8.5c0.9,3.6,1.4,8,1.4,13.3
		s-0.5,9.7-1.4,13.3s-2.5,6.4-4.6,8.5c-2.1,2.1-4.8,3.6-8.3,4.5c-3.4,0.9-7.6,1.4-12.4,1.4c-4.7,0-9-0.1-13-0.2
		c-4-0.1-7.8-0.3-11.4-0.5l4.9-7.5c2.5,0.1,5.4,0.2,8.6,0.3c3.3,0.1,6.9,0.1,10.9,0.1c3.6,0,6.5-0.6,8.6-1.8
		c2.1-1.2,3.6-3.2,4.5-6.1c0.9-2.9,1.3-6.9,1.3-12c0-5.1-0.4-9.1-1.3-12c-0.9-2.9-2.4-4.9-4.5-6.1s-5-1.8-8.6-1.8
		c-3.9,0-7.3,0-10.4,0.1c-3,0.1-6,0.1-8.9,0.1l-5.2-7.2c3.6-0.2,7.3-0.4,11.3-0.5C378.1,72.4,382.5,72.2,387.2,72.2z M374.6,72.9v54
		h-11.7v-54C362.9,72.9,374.6,72.9,374.6,72.9z"/>
	<path class="st2" d="M449.2,72.4c5.5,0,9.9,0.4,13.2,1.2c3.3,0.8,5.6,2.2,7.1,4.3s2.2,4.9,2.2,8.6c0,3.9-0.9,6.8-2.6,8.8
		c-1.8,2-4.6,3.2-8.6,3.5v0.3c4.9,0.4,8.4,1.8,10.4,4.2c2,2.5,3,5.8,3,10.2c0,3.7-0.7,6.6-2.2,8.6s-3.8,3.5-6.9,4.3
		c-3.2,0.8-7.3,1.2-12.3,1.2c-3.9,0-7.4,0-10.3,0s-5.6-0.1-8.1-0.2c-2.4-0.1-5-0.2-7.6-0.4l1.3-7.1c1.5,0.1,4.3,0.1,8.4,0.2
		c4.1,0.1,8.9,0.1,14.4,0.1c2.9,0,5.3-0.2,6.9-0.7c1.7-0.4,2.9-1.3,3.6-2.5s1.1-3,1.1-5.2c0-2.5-0.4-4.4-1.1-5.8
		c-0.8-1.3-2-2.3-3.7-2.8s-4.1-0.8-7.3-0.8h-22.7v-6.6h22.2c2.7,0,4.8-0.2,6.3-0.7c1.5-0.4,2.6-1.2,3.3-2.4c0.7-1.1,1-2.8,1-4.9
		c0-2.1-0.4-3.8-1.1-4.9c-0.7-1.1-1.9-1.9-3.6-2.3c-1.7-0.4-4-0.6-7-0.6c-3.3,0-6.3,0-8.8,0c-2.6,0-4.9,0-6.9,0s-3.8,0.1-5.4,0.2
		l-1.3-7.1c2.4-0.2,4.6-0.4,6.8-0.4s4.5-0.1,7.1-0.2C442.7,72.4,445.7,72.4,449.2,72.4z M437.6,72.9v54h-11.5v-54
		C426.1,72.9,437.6,72.9,437.6,72.9z"/>
	<path class="st2" d="M510.1,71.9c5,0,9.2,0.5,12.7,1.4c3.4,0.9,6.2,2.4,8.3,4.6c2.1,2.1,3.6,5,4.6,8.6c0.9,3.6,1.4,8.1,1.4,13.5
		c0,5.3-0.5,9.8-1.4,13.4c-0.9,3.6-2.5,6.5-4.6,8.6c-2.1,2.1-4.9,3.7-8.3,4.6c-3.4,0.9-7.7,1.4-12.7,1.4c-4.9,0-9-0.5-12.5-1.4
		c-3.4-0.9-6.2-2.4-8.4-4.6c-2.1-2.1-3.7-5-4.6-8.6c-0.9-3.6-1.4-8.1-1.4-13.4c0-5.4,0.5-9.9,1.4-13.5c0.9-3.6,2.5-6.5,4.6-8.6
		c2.1-2.1,4.9-3.7,8.4-4.6C501,72.4,505.2,71.9,510.1,71.9z M510.1,79.9c-3.7,0-6.6,0.6-8.7,1.8s-3.6,3.3-4.5,6.2
		c-0.9,2.9-1.3,6.9-1.3,12c0,5.1,0.4,9.1,1.3,12c0.9,2.9,2.4,5,4.5,6.2s5,1.8,8.7,1.8c3.8,0,6.7-0.6,8.8-1.8
		c2.1-1.2,3.6-3.3,4.5-6.2c0.9-2.9,1.3-6.9,1.3-12c0-5.1-0.4-9.1-1.3-12c-0.9-2.9-2.4-5-4.5-6.2C516.8,80.6,513.8,79.9,510.1,79.9z"
		/>
	<path class="st2" d="M555,72.9l15.7,26.1l-16.8,27.8h-12.3l17.6-27.8l-16.3-26.1H555z M575.8,95.9v6.5H563v-6.5H575.8z M596.4,72.9
		l-16.3,26.1l17.6,27.8h-12.3l-16.8-27.8l15.7-26.1H596.4z"/>
</g>
<g id="SVGRepo_iconCarrier" class="st0">
	<path class="st3" d="M571.6,98.5l-62.3-72.3c-1.7-1.9-5.7-3.2-10.1-3.2H309.8c-8.9,0-17,2.5-20.3,6.4l-25.9,30c3.3,0,6.5,0,9.8,0
		c4.6,0,9.1,0,13.7,0l22.6-26.2h173.2l-22.6,26.2c1.3,0,2.6,0,3.9,0c1.4,0,10.3,0.2,19.4,0.4l15.5-18l52.2,60.5c1,1.2,1,2.6,0,3.8
		l-52.2,60.5l-19.7-22.9c-6.7,0-13.4,0.1-20,0.1c-1.2,0-2.3,0-3.5,0l27.1,31.4H309.8l-27.1-31.4c-1.3,0-2.5,0-3.8,0
		c-6.6,0-13.2,0-19.8-0.1l30.4,35.2c3.3,3.8,11.3,6.4,20.3,6.4h189.3c4.5,0,8.5-1.3,10.1-3.2l62.3-72.3
		C574.7,106.2,574.7,102.1,571.6,98.5z"/>
</g>
<g>
	<path class="st4" d="M100.6,128.3c-1.5-0.8-2.9-1.6-4.3-2.6c-5.2-3.4-9.7-7.8-13.3-12.9c-0.3,0-0.7,0.1-1,0.1
		c-5.3,0.6-10.5,2.2-15.2,4.6c0.5,0.9,1.1,1.7,1.6,2.6c7.3,11.1,17.7,19.8,29.9,25c1.1,0.5,2.2,0.9,3.3,1.3c2.5-1.1,4.8-2.6,7.1-4.2
		c3.3-2.4,6-5.3,8.3-8.4c-5-0.8-9.8-2.2-14.2-4.4C102.1,129.1,101.3,128.7,100.6,128.3z"/>
	<path class="st4" d="M64.3,97.9L64.3,97.9c0.6,0.2,1.2,0.4,1.8,0.6c4.9,1.6,10.1,2.3,15.4,2.1c0.5-1.2,0.8-2.4,1.2-3.7
		c1.8-6.7,1.8-13.7,0-20.4c-1.7-6.6-5.1-12.8-10.2-17.9c-1.5-1.5-3-2.8-4.6-4c3,13.1,2.3,26.8-2.1,39.5
		C65.2,95.4,64.8,96.7,64.3,97.9z"/>
	<path class="st4" d="M47.7,62.3c0.3,1.6,0.5,3.3,0.6,5c0.4,6.2-0.3,12.5-2.2,18.5c3.9,4.2,8.5,7.6,13.6,10.1
		c0.5-1.1,0.9-2.3,1.3-3.4c4.3-12.6,4.8-26.1,1.4-39c-0.2-0.9-0.5-1.8-0.8-2.7c-2.4-1.2-4.8-2.1-7.4-2.7c-3.8-1-7.8-1.4-11.7-1.3
		c1.8,3.5,3.2,7.1,4.2,10.9C47.1,59.2,47.4,60.7,47.7,62.3z"/>
	<path class="st4" d="M38.5,107.9c1.1-0.2,2.2-0.3,3.3-0.5c-0.2-1.3-0.4-2.7-0.7-4c-0.9-4-2.4-8-4.4-11.7c-1.1,0.1-2.2,0.3-3.3,0.6
		c-6.6,1.5-12.9,4.7-18.3,9.6c-5.4,5-9.2,11.2-11.2,17.8c-0.5,1.5-0.8,3.1-1.1,4.6c9-7.7,19.7-13,31.2-15.6
		C35.5,108.4,37,108.2,38.5,107.9z"/>
	<path class="st4" d="M18.2,139.2c1.3-1,2.7-2,4.1-2.9c5-3.2,10.6-5.5,16.4-6.8c0.3-0.1,0.5-0.1,0.8-0.2c2-5.4,2.9-11.1,2.7-16.8
		c-1,0.1-1.9,0.2-2.9,0.4c-1.4,0.2-2.8,0.5-4.1,0.8c-11.5,2.6-22.2,8.2-30.9,16.2c-0.7,0.6-1.3,1.2-1.9,1.9l0,0c0,2.8,0.3,5.6,1,8.4
		c0.8,3.7,2.2,7.3,4.1,10.8c2.3-3.5,5.1-6.6,8.1-9.4C16.4,140.7,17.3,139.9,18.2,139.2z"/>
	<path class="st4" d="M94.6,148.9c-12.4-5.7-22.9-14.7-30.3-26.1c-0.6-0.9-1.2-1.9-1.8-2.9c-0.8,0.5-1.6,1.1-2.4,1.6
		c-3.6,2.6-6.8,5.8-9.5,9.4c0.7,1.1,1.4,2.1,2.1,3.2c4.5,5.9,10.2,10.3,16.6,12.9c6.4,2.6,13.4,3.6,20.2,2.8
		C91.2,149.7,92.9,149.4,94.6,148.9z"/>
</g>
<g>
	<path class="st5" d="M193.3,97.7L193.3,72l-16.6,21.2h-4.2l-16.6-20.9v25.3h-9V59h7.7l20.1,25.7L194.4,59h7.7l0.1,38.7H193.3z"/>
	<path class="st5" d="M211.2,59h9.4v38.7h-9.4V59z"/>
	<path class="st5" d="M275.8,59v38.7h-7.7l-27.9-26.2v26.2h-9.3V59h7.7l27.9,26.2V59H275.8z"/>
	<path class="st5" d="M151.4,139.2c-2.4-0.7-4.2-1.6-5.6-2.8l2.1-4.6c1.3,1,3,1.9,4.9,2.5c2,0.6,3.9,1,5.9,1c2.4,0,4.3-0.4,5.5-1.1
		c1.2-0.8,1.8-1.7,1.8-3c0-0.9-0.3-1.7-1-2.2c-0.7-0.6-1.5-1-2.6-1.4c-1-0.3-2.4-0.7-4.2-1.1c-2.5-0.6-4.5-1.1-6.1-1.7
		c-1.5-0.6-2.9-1.5-4-2.7c-1.1-1.2-1.7-2.9-1.7-5c0-1.7,0.5-3.3,1.5-4.8c1-1.4,2.5-2.6,4.5-3.4c2-0.8,4.4-1.3,7.3-1.3
		c2,0,4,0.2,5.9,0.7c1.9,0.5,3.6,1.2,5,2.1l-1.9,4.6c-1.4-0.8-2.9-1.4-4.5-1.9c-1.6-0.4-3.1-0.6-4.5-0.6c-2.4,0-4.2,0.4-5.4,1.2
		c-1.2,0.8-1.8,1.8-1.8,3.1c0,0.9,0.3,1.6,1,2.2c0.7,0.6,1.5,1,2.6,1.4c1,0.3,2.4,0.7,4.2,1.1c2.4,0.5,4.4,1.1,6,1.7
		c1.6,0.6,2.9,1.5,4,2.7c1.1,1.2,1.7,2.8,1.7,4.9c0,1.7-0.5,3.3-1.5,4.7c-1,1.4-2.5,2.5-4.5,3.4c-2,0.8-4.4,1.3-7.3,1.3
		C156.2,140.3,153.7,139.9,151.4,139.2z"/>
	<path class="st5" d="M207.2,108.1v31.7h-6.1v-13.6h-17v13.6H178v-31.7h6.1v13.1h17v-13.1L207.2,108.1z"/>
	<path class="st5" d="M237.3,132.5h-16.4l-3.2,7.3h-6.3l14.8-31.7h6l14.8,31.7h-6.4L237.3,132.5z M235.2,127.9l-6.2-13.8l-6.1,13.8
		H235.2z"/>
	<path class="st5" d="M272.6,139.8l-6.7-9.3c-0.3,0-0.7,0-1.3,0h-7.4v9.2h-6.1v-31.7h13.5c2.8,0,5.3,0.5,7.4,1.4
		c2.1,0.9,3.7,2.2,4.8,3.9c1.1,1.7,1.7,3.7,1.7,6c0,2.4-0.6,4.4-1.8,6.2c-1.2,1.7-2.9,3-5.2,3.8l7.5,10.4H272.6z M270.3,114.7
		c-1.4-1.1-3.4-1.6-6-1.6h-7.1v12.6h7.1c2.7,0,4.7-0.6,6-1.7c1.4-1.1,2.1-2.7,2.1-4.7C272.4,117.4,271.7,115.8,270.3,114.7z"/>
	<path class="st4" d="M300,59h20.8v85.5H300V59z"/>
	<path class="st4" d="M439.7,59v85.5h-17.1l-61.9-57.9v57.9H340V59h17.1l61.9,57.9V59H439.7z"/>
	<path class="st4" d="M537.9,99.7h19.7v34.1c-5.8,3.5-12.5,6.2-20.2,8.1c-7.7,1.9-15.6,2.8-23.7,2.8c-11.4,0-21.7-1.9-30.9-5.7
		c-9.2-3.8-16.4-9-21.6-15.7c-5.2-6.7-7.9-14.2-7.9-22.6c0-8.4,2.6-15.9,7.9-22.6c5.2-6.7,12.5-11.9,21.7-15.7
		c9.2-3.8,19.6-5.7,31.2-5.7c9.4,0,17.9,1.2,25.6,3.5s14.1,5.8,19.4,10.4l-13.1,9.8c-8.5-6.5-18.9-9.8-30.9-9.8
		c-7.9,0-14.9,1.3-21.1,3.8c-6.1,2.5-11,6.1-14.4,10.6c-3.5,4.6-5.2,9.8-5.2,15.6c0,5.7,1.7,10.8,5.2,15.4
		c3.5,4.6,8.3,8.1,14.4,10.8c6.1,2.6,13.1,3.9,20.9,3.9c8.8,0,16.5-1.5,23.1-4.4V99.7z"/>
</g>
</svg>
