<?xml version="1.0" encoding="utf-8"?>
<!-- Generator: Adobe Illustrator 26.5.0, SVG Export Plug-In . SVG Version: 6.00 Build 0)  -->
<svg version="1.1" id="Слой_1" xmlns="http://www.w3.org/2000/svg" xmlns:xlink="http://www.w3.org/1999/xlink" x="0px" y="0px"
	 viewBox="0 0 300 60" style="enable-background:new 0 0 300 60;" xml:space="preserve">
<style type="text/css">
	.st0{fill:#212842;}
	.st1{fill:#07A697;}
	.st2{display:none;}
	.st3{display:inline;}
	.st4{display:none;enable-background:new    ;}
	.st5{font-family:'RobotDreamer';}
	.st6{font-size:23.2036px;}
</style>
<g>
	<path class="st0" d="M119.2,8l-8.6,23.9h-5.9l4.9-13.5L97.1,31.9H89l-2.9-13.5l-4.9,13.5h-5.9L83.9,8h6.9l3.9,18.9L112.3,8H119.2z"
		/>
	<path class="st0" d="M114.9,31.9L123.5,8h5.9l-8.6,23.9H114.9z"/>
	<path class="st0" d="M164,8l-8.6,23.9h-8.1l-10-17.4l-6.4,17.4H125L133.6,8h8.1l10,17.4L158.1,8H164z"/>
	<path class="st0" d="M88.6,47.7c-0.5,1.5-1.5,2.7-2.9,3.7c-1,1-2.7,1.5-4.2,1.5H68.8l1.5-4h13c0.2,0,0.7-0.2,1-0.5s0.5-0.5,0.7-1
		c0.2-0.2,0-0.7,0-1c-0.2-0.2-0.5-0.5-0.7-0.5h-2.4v1.2H76c-1.5,0-2.4-0.5-3.2-1.5c-0.7-1-0.7-2.2-0.2-3.7s1.5-2.7,2.9-3.7
		c1.2-1,2.7-1.5,4.2-1.5h13l-1.5,4h-13c-0.2,0-0.7,0.2-1,0.5s-0.5,0.5-0.7,1c-0.2,0.2,0,0.7,0,1c0.2,0.2,0.5,0.5,0.7,0.5h1.2v-1.2
		h7.1c1.5,0,2.4,0.5,3.2,1.5C89.1,45,89.3,46.2,88.6,47.7z"/>
	<path class="st0" d="M113.5,36.9l-5.6,15.9H104l2.2-6h-10l-2.2,6h-4l5.6-15.9h3.9l-2.2,6h10l2.2-6H113.5z"/>
	<path class="st0" d="M132.5,52.8h-4.4l-0.2-1.2H124v1.2h-14.4l14.7-15.9h4.9L132.5,52.8z M126.9,47.6l-1.5-7l-8.1,8.7h3.2v-1.7h0.2
		H126.9z"/>
	<path class="st0" d="M148.2,47.3l2,5.5h-4.6l-1.7-5.5h-2.7H141l1.2-1.7h-2.7l-2.4,7H133l5.6-15.9h12.2c1.5,0,2.4,0.5,3.2,1.5
		c0.5,1,0.7,2.2,0.2,3.7s-1.5,2.7-2.9,3.7C150.2,46.6,149.2,47.1,148.2,47.3z M150.2,42.1c0-0.2,0-0.7,0-1c-0.2-0.2-0.5-0.5-0.7-0.5
		h-8.3l-0.5,1.7h7.3l-1,1.2h1.5c0.2,0,0.7-0.2,1-0.5C149.7,42.8,149.9,42.6,150.2,42.1z"/>
</g>
<g>
	<path class="st1" d="M156,52.8l10.5-29.7h11L167,52.8H156z M168,19.2L171.9,8h11L179,19.2H168z"/>
	<path class="st1" d="M242.9,8L227,52.8h-15.2l-18.6-32.9l-11.7,32.9h-11L186.4,8h15.2l18.6,32.9l12-32.9H242.9z"/>
	<path class="st1" d="M248.3,30.4c-1.2,3.2-1,6,0.5,8s4.2,3.2,8.6,3.2h19.1l2-5.7h-19.8l3.9-11.2h30.6l-10,28.2h-29.9
		c-7.3,0-12.2-2.2-14.9-6c-3.2-4.2-3.4-10-1-16.4c2.2-6.5,6.6-12.2,12.7-16.4c5.4-3.7,12-6,19.1-6h29.9L295,19.2h-29.9
		c-4.4,0-8.1,1.2-10.8,3C251.5,24.4,249.5,27.1,248.3,30.4z"/>
</g>
<g class="st2">
	<path class="st3" d="M6.2,16.1v-6c0-0.4,0.1-0.8,0.4-1.1s0.7-0.4,1.1-0.4h7.5c0.4,0,0.8,0.1,1.1,0.4c0.3,0.3,0.4,0.6,0.4,1.1v6
		h-1.5v-6h-3v6h-1.5v-6h-3v6H6.2z"/>
	<path class="st3" d="M18.2,16.1V8.6h1.5v7.5H18.2z"/>
	<path class="st3" d="M21.2,16.1v-6c0-0.4,0.1-0.8,0.4-1.1s0.7-0.4,1.1-0.4h4.5c0.4,0,0.8,0.1,1.1,0.4c0.3,0.3,0.4,0.6,0.4,1.1v6
		h-1.5v-6h-4.5v6H21.2z"/>
	<path class="st3" d="M6,22.9v-1h4v-1H7c-0.3,0-0.5-0.1-0.7-0.3C6.1,20.4,6,20.1,6,19.8v-1c0-0.3,0.1-0.5,0.3-0.7
		c0.2-0.2,0.4-0.3,0.7-0.3h4v1H7v1h3c0.3,0,0.5,0.1,0.7,0.3c0.2,0.2,0.3,0.4,0.3,0.7v1c0,0.3-0.1,0.5-0.3,0.7s-0.4,0.3-0.7,0.3H6
		V22.9z"/>
	<path class="st3" d="M12.1,22.9v-5h1v2h3v-2h1v5h-1v-2h-3v2H12.1z"/>
	<path class="st3" d="M18.1,22.9v-4c0-0.3,0.1-0.5,0.3-0.7c0.2-0.2,0.4-0.3,0.7-0.3h3c0.3,0,0.5,0.1,0.7,0.3
		c0.2,0.2,0.3,0.4,0.3,0.7v4h-1v-2h-3v2H18.1z M22.2,19.8v-1h-3v1H22.2z"/>
	<path class="st3" d="M27.2,20.8h-2v2h-1v-5h4c0.3,0,0.5,0.1,0.7,0.3c0.2,0.2,0.3,0.4,0.3,0.7v1c0,0.3-0.1,0.5-0.3,0.7
		s-0.4,0.3-0.7,0.3v1h1v1h-1c-0.3,0-0.5-0.1-0.7-0.3c-0.2-0.2-0.3-0.4-0.3-0.7V20.8z M28.2,19.8v-1h-3v1H28.2z"/>
</g>
<text transform="matrix(1 0 0 1 31.3247 22.8325)" class="st4 st5 st6">ING</text>
<path class="st0" d="M57,22.1l-0.7-1.4l-0.9-1.4l-1.2-1.2L53,17.3l-1.4-0.8v-1.4v-1c0-0.4,0-0.7-0.1-1.1l-0.2-0.6
	c-0.1-0.5-0.3-0.9-0.5-1.3l-0.4-0.7c-0.5-0.6-1-1.2-1.6-1.7l-0.4-0.4C48.2,8.1,48,8,47.8,7.8l-1.5-1c-0.3-0.2-0.7-0.4-1-0.6
	l-1.8-0.9c-0.3-0.2-0.6-0.3-1-0.4l-1.8-0.7c-0.5-0.2-1-0.3-1.5-0.5l-0.8-0.2c-0.6-0.2-1.3-0.3-2-0.4l-1.2-0.2
	c-0.7-0.1-1.4-0.1-2-0.1h-0.7c-0.6,0-1.1,0-1.7,0l-1.9,0.1c-0.7,0-1.3,0.1-2,0.3l-1,0.3c-1.2,0.3-2.3,0.7-3.3,1.2l-1.3,0.6
	c-0.7,0.3-1.3,0.6-2,1L18,7c-0.7,0.4-1.3,0.8-1.9,1.3l-1.6,1.3c-0.9,0.8-1.9,1.6-2.7,2.6L10.3,14c-0.6,0.7-1.3,1.5-1.8,2.3
	c-0.7,1.1-1.3,2.2-1.9,3.3l-1.5,3l-3.9,6.9L1,29.8l0.3,1.5l0.9,3.2l1.4,3.9l2.1,3.9l2.1,3l2.5,3l3,2.8l3.7,2.8l3,1.6l3,1.4l1.9,0.5
	L24.2,56l-0.5-1.6l-0.2-1.6L23,50.3L22.8,48l0.2-2.8l0.2-2.3l0.5-2.5l0.7-2.1l1.2-2.5l1.6-2.5l2.1-2.6l2.3-1.8l2.1-1.2l2.1-1.1
	l2.8-0.9l2.5-0.5l3.5-0.5h2.5h1.1c0.6,0,1.3,0.1,1.9,0.2l1.2,0.3l1.7,0.6c0.5,0.2,1,0.5,1.5,0.9l0.7,0.6l0.7,0.9l0.7,1.6l0.5-1.9
	l0.2-1.5V25v-0.3c0-0.7-0.1-1.3-0.3-1.9L57,22.1z M38.3,11.8c0.1-0.2,0.2-0.4,0.3-0.6l0.5-0.6l1.2,0.5l-0.5,0.3
	c-0.2,0.1-0.4,0.3-0.5,0.5V12l-0.1,0.3c-0.1,0.2-0.1,0.5,0,0.7l0,0c0.1,0.3,0.3,0.6,0.6,0.8l0.2,0.1c0.2,0.1,0.4,0.1,0.6,0.1l0,0
	c0.4,0,0.7-0.2,1-0.4l0,0c0.1-0.1,0.2-0.3,0.3-0.5c0-0.3,0.1-0.5,0-0.8l-0.1-0.5l0.9,0.7l-0.1,0.7c-0.1,0.3-0.2,0.6-0.3,0.8v0.1
	c-0.1,0.2-0.3,0.3-0.4,0.4c-0.3,0.2-0.8,0.3-1.2,0.3h-0.2h-0.3c-0.3,0-0.5,0-0.7-0.2l-0.2-0.1c-0.3-0.1-0.4-0.3-0.6-0.5l-0.2-0.3
	c0-0.1-0.1-0.1-0.1-0.2l-0.1-0.2c-0.1-0.2-0.1-0.4-0.1-0.6v-0.3c0-0.2,0-0.3,0.1-0.5L38.3,11.8z M15.1,21.2l-0.7,0.9
	c-0.5,0.6-0.9,1.3-1.3,2L13,24.2l-0.4,0.7c-0.3,0.6-0.7,1.3-1,1.9l-0.2,0.5c-0.2,0.4-0.4,0.9-0.5,1.3l-0.4,1.2l-0.2,0.6
	c-0.2,0.6-0.3,1.1-0.5,1.7c0,0.2-0.1,0.4-0.1,0.6l-0.1,0.2c-0.2,0.7-0.4,1.5-0.5,2.2L9,35.6l-0.2,2.1l-0.2,2.1l-0.9-1.6l-1.2-2.3
	L6,34.6v-0.2c0-0.6,0.1-1.3,0.2-1.9l0,0c0.1-0.6,0.3-1.2,0.5-1.8c0.2-0.7,0.6-1.6,0.8-2.2C7.8,28,8,27.4,8.3,26.9L9,25.3
	c0.2-0.4,0.4-0.8,0.6-1.1l0.6-1.1c0.5-0.9,1.1-1.8,1.7-2.7l0.1-0.1c0.2-0.3,0.5-0.6,0.8-0.9l0.6-0.7c0.2-0.3,0.5-0.5,0.7-0.8
	l0.4-0.4c0.4-0.4,0.9-0.8,1.3-1.2l0.9-0.8l0.7-0.6c0.4-0.3,0.9-0.7,1.3-1l1.2-0.7l1.6-0.9l1.4-0.7l1.6-0.7l1.6-0.5l1.4-0.2l0.6-0.1
	c0.5-0.1,1-0.1,1.5-0.1h1h1.8h1.1c0.4,0,0.9,0,1.3,0.1l1.7,0.2l1.6,0.2L37.6,11l-0.3,0.6c-0.1,0.3-0.1,0.5-0.1,0.8v0.3v0.5v0.2
	c0.2,0.3,0.3,0.6,0.4,0.9l0.1,0.2l0.2,0.5l-0.7-0.5c-0.6-0.5-1.2-1-1.6-1.6L35.2,12c-0.1-0.2-0.2-0.3-0.3-0.5L34.5,11h-0.2
	c-1.3,0-2.5,0.2-3.8,0.5L29,12c-0.5,0.2-1,0.3-1.6,0.5L27,12.7c-0.8,0.3-1.5,0.6-2.2,1l-1,0.6L22.5,15c-0.5,0.3-1,0.6-1.4,0.9
	l-0.8,0.6c-0.4,0.2-0.7,0.5-1.1,0.8l-0.8,0.6c-0.5,0.4-1,0.9-1.5,1.3l0,0c-0.4,0.4-0.9,0.9-1.3,1.4C15.3,20.9,15.1,21.2,15.1,21.2z
	 M43.5,21.4l-1.3,0.1c-0.3,0-0.6,0.1-0.9,0.1L40,21.9c-0.2,0-0.4,0.1-0.6,0.1l-1.5,0.3l-1.2,0.4c-0.3,0.1-0.6,0.2-0.8,0.3l-1.3,0.5
	l-1.5,0.6l-0.9,0.4c-0.3,0.2-0.7,0.3-1,0.6L30,25.9l-1.4,0.9c-0.2,0.1-0.3,0.2-0.5,0.3l-1.2,1l-1.3,1.1l-0.9,0.9l-0.9,1L23.3,32
	c-0.1,0.2-0.3,0.3-0.4,0.5l-0.5,0.7c-0.2,0.2-0.3,0.5-0.5,0.7l-0.5,0.9L21,35.2c-0.3,0.5-0.6,1-0.8,1.6L20,37.4L19.4,39L19,40.4
	l-0.4,1.5l-0.3,1.6L18,44.8l-0.2,2l-0.1,1.5v1.1L17.4,49l-0.2-1.5c0-0.1,0-0.2,0-0.3L16.8,45l-0.2-1l-0.1-1.1l-0.1-0.8
	c0-0.3,0-0.6,0-0.8v-0.7c0-0.2,0-0.4,0-0.6l-0.1-1c0-0.4,0-0.8,0-1.2v-0.9c0-0.1,0-0.3,0-0.4l0.1-0.9c0-0.3,0.1-0.5,0.1-0.8l0.3-1.3
	c0-0.1,0-0.2,0.1-0.3l0.3-0.9c0.1-0.3,0.2-0.6,0.3-0.9l0.3-0.8c0.1-0.2,0.2-0.4,0.3-0.6l0.6-1.3c0.1-0.2,0.2-0.3,0.3-0.5l0.4-0.7
	c0.2-0.3,0.3-0.6,0.5-0.9l0.7-1l0.8-1.1c0.2-0.3,0.5-0.6,0.7-0.9l0.6-0.6c0.2-0.2,0.3-0.3,0.5-0.5l0.8-0.8c0.2-0.2,0.5-0.4,0.7-0.6
	l0.6-0.5c0.2-0.1,0.3-0.2,0.5-0.3l0.7-0.4c0.2-0.1,0.4-0.3,0.6-0.4l0.6-0.3c0.2-0.1,0.3-0.2,0.5-0.2l0.9-0.4
	c0.2-0.1,0.4-0.2,0.6-0.2l0.4-0.1c0.3-0.1,0.7-0.2,1.1-0.2l0.7-0.1c0.3,0,0.5-0.1,0.8-0.1l1.1-0.1c0.2,0,0.4,0,0.6,0H35
	c0.2,0,0.4,0,0.6,0l1.1,0.1c0.1,0,0.2,0,0.3,0l0.7,0.1c0.5,0.1,1.1,0.2,1.6,0.4l0.7,0.2c0.3,0.1,0.5,0.2,0.8,0.3l1.3,0.6
	c0.1,0,0.2,0.1,0.3,0.1l0.8,0.4c0.1,0.1,0.3,0.2,0.4,0.2l0.3,0.2c0.2,0.1,0.4,0.3,0.6,0.4l1,0.8L43.5,21.4z M44.7,15.2l-0.4,0.2
	c-0.4,0.2-0.9,0.3-1.4,0.3h-1.3l0.9-0.5l0.3-0.3c0.3-0.3,0.5-0.6,0.6-0.9c0.1-0.3,0.2-0.6,0.2-0.9l0.7,0.5l0.5,0.5l0.7,0.7
	L44.7,15.2z"/>
<polygon class="st0" points="47.8,25 47.2,25.2 46.4,25.7 45.7,26.2 44.8,27 44,27.7 43.3,28.5 42.8,29.4 42.2,30.4 41.5,31.7 
	41,33 40.6,34.4 40.3,35.9 40.1,37.1 39.9,38.2 39.9,39.4 40.1,40.9 40.3,42.1 40.6,43.5 41.1,44.8 41.7,46.2 42.4,47.6 43.3,49 
	44.1,50.1 45.1,51.3 46.4,52.6 47.2,53.4 48.3,54.4 49.4,55.2 50.5,56.1 52.2,55.1 53.7,54.3 55,53.5 56.2,52.6 57,52 55.7,51.5 
	53.8,50.6 51.8,49.3 50.2,48.3 49,47.2 47.8,46 46.6,44.8 45.6,43.1 44.7,41.6 44,39.7 43.6,38.3 43.3,36.6 43.2,34.9 43.4,33.3 
	43.7,31.4 44.3,29.8 45.3,27.9 46.2,26.5 "/>
</svg>
