<?xml version="1.0" encoding="utf-8"?>
<!-- Generator: Adobe Illustrator 26.5.0, SVG Export Plug-In . SVG Version: 6.00 Build 0)  -->
<svg version="1.1" id="Слой_1" xmlns="http://www.w3.org/2000/svg" xmlns:xlink="http://www.w3.org/1999/xlink" x="0px" y="0px"
	 viewBox="0 0 100 20" style="enable-background:new 0 0 100 20;" xml:space="preserve">
<style type="text/css">
	.st0{fill:#252F43;}
	.st1{fill:#3579F4;}
</style>
<g>
	<path class="st0" d="M19.8,13.3l-2.6-6.1H19l1.1,2.8c0.3,0.8,0.6,1.6,0.8,2.1h0c0.2-0.5,0.5-1.4,0.8-2.1l1.1-2.8h1.7l-2.7,6.1H19.8
		z"/>
	<path class="st0" d="M27.1,7.3v6.1h-1.7V7.3H27.1z"/>
	<path class="st0" d="M30.6,10.8v2.5h-1.6V7.3h3.3c1.5,0,2.6,0.6,2.6,1.6c0,0.8-0.6,1.2-1.3,1.4c0.8,0.2,1.1,0.7,1.1,1.5v0.2
		c0,0.5,0,1,0.1,1.4h-1.6c-0.1-0.3-0.2-0.7-0.2-1.4v-0.2c0-0.7-0.3-0.9-1.4-0.9H30.6z M30.6,9.8h1.2c0.8,0,1.4-0.2,1.4-0.8
		c0-0.6-0.5-0.8-1.2-0.8h-1.5V9.8z"/>
	<path class="st0" d="M37.9,8.3h-2.2v-1h6.1v1h-2.2v5h-1.7V8.3z"/>
	<path class="st0" d="M44.5,7.3v3.9c0,0.7,0.3,1.3,1.5,1.3c1.2,0,1.5-0.6,1.5-1.3V7.3h1.7v3.9c0,1.3-0.7,2.3-3.2,2.3
		c-2.4,0-3.1-1-3.1-2.3V7.3H44.5z"/>
	<path class="st0" d="M52.1,11.9l-0.6,1.4h-1.6c0.1-0.2,2.4-5.8,2.5-6.1h2.1l2.6,6.1h-1.7l-0.6-1.4H52.1z M54.5,10.9
		c-0.5-1.2-0.9-2.1-1-2.7h0c-0.2,0.7-0.6,1.6-1,2.7H54.5z"/>
	<path class="st0" d="M58.2,7.3h1.7v5h3.6l-0.2,1h-5.1V7.3z"/>
	<path class="st1" d="M71,11.1c0-1,0-2.3,0.1-2.9h-0.1c-0.4,1.3-1.2,3.5-1.9,5.2h-1.4c-0.5-1.4-1.4-4-1.7-5.2h-0.1
		c0.1,0.7,0.1,2,0.1,3.1v2.2h-1.5V7.3h2.5c0.6,1.4,1.3,3.5,1.5,4.4h0c0.2-0.8,1.1-3,1.7-4.4h2.4v6.1H71V11.1z"/>
	<path class="st1" d="M76,7.3v6.1h-1.7V7.3H76z"/>
	<path class="st1" d="M77.9,13.3V7.3H80c2.4,3.7,2.8,4.3,2.9,4.6h0c-0.1-0.7-0.1-1.7-0.1-2.7V7.3h1.5v6.1h-2c-2.6-4.1-2.9-4.5-3-4.8
		h0c0.1,0.8,0.1,1.8,0.1,2.9v1.9H77.9z"/>
	<path class="st1" d="M91.4,10.7h-3.5v1.6h3.9l-0.2,1h-5.3V7.3h5.3v1h-3.7v1.4h3.5V10.7z"/>
	<path class="st1" d="M94.6,10.8v2.5H93V7.3h3.3c1.5,0,2.6,0.6,2.6,1.6c0,0.8-0.6,1.2-1.3,1.4c0.8,0.2,1.1,0.7,1.1,1.5v0.2
		c0,0.5,0,1,0.1,1.4h-1.6c-0.1-0.3-0.2-0.7-0.2-1.4v-0.2c0-0.7-0.3-0.9-1.4-0.9H94.6z M94.6,9.8h1.2c0.8,0,1.4-0.2,1.4-0.8
		c0-0.6-0.5-0.8-1.2-0.8h-1.5V9.8z"/>
</g>
<g>
	<path class="st1" d="M14.5,13.7c-0.2-0.1-0.4-0.2-0.6-0.4c-0.7-0.5-1.3-1.1-1.8-1.8c0,0-0.1,0-0.1,0c-0.7,0.1-1.5,0.3-2.1,0.6
		c0.1,0.1,0.2,0.2,0.2,0.4c1,1.5,2.5,2.7,4.1,3.5c0.2,0.1,0.3,0.1,0.5,0.2c0.3-0.2,0.7-0.4,1-0.6c0.5-0.3,0.8-0.7,1.1-1.2
		c-0.7-0.1-1.4-0.3-2-0.6C14.7,13.8,14.6,13.8,14.5,13.7z"/>
	<path class="st1" d="M9.5,9.5L9.5,9.5c0.1,0,0.2,0.1,0.2,0.1c0.7,0.2,1.4,0.3,2.1,0.3C12,9.7,12,9.6,12.1,9.4
		c0.2-0.9,0.2-1.9,0-2.8c-0.2-0.9-0.7-1.8-1.4-2.5c-0.2-0.2-0.4-0.4-0.6-0.6c0.4,1.8,0.3,3.7-0.3,5.5C9.6,9.2,9.6,9.4,9.5,9.5z"/>
	<path class="st1" d="M7.2,4.6c0,0.2,0.1,0.5,0.1,0.7C7.4,6.1,7.3,7,7,7.8c0.5,0.6,1.2,1.1,1.9,1.4C8.9,9.1,9,8.9,9.1,8.8
		C9.7,7,9.7,5.2,9.2,3.4c0-0.1-0.1-0.2-0.1-0.4c-0.3-0.2-0.7-0.3-1-0.4C7.6,2.5,7,2.4,6.5,2.4c0.2,0.5,0.4,1,0.6,1.5
		C7.1,4.2,7.2,4.4,7.2,4.6z"/>
	<path class="st1" d="M5.9,10.9c0.2,0,0.3,0,0.5-0.1c0-0.2-0.1-0.4-0.1-0.6C6.2,9.7,6,9.2,5.7,8.7c-0.2,0-0.3,0-0.5,0.1
		C4.3,9,3.4,9.4,2.7,10.1c-0.7,0.7-1.3,1.6-1.6,2.5C1.1,12.8,1,13,1,13.2c1.2-1.1,2.7-1.8,4.3-2.2C5.5,11,5.7,10.9,5.9,10.9z"/>
	<path class="st1" d="M3.1,15.2c0.2-0.1,0.4-0.3,0.6-0.4c0.7-0.4,1.5-0.8,2.3-0.9c0,0,0.1,0,0.1,0c0.3-0.7,0.4-1.5,0.4-2.3
		c-0.1,0-0.3,0-0.4,0.1c-0.2,0-0.4,0.1-0.6,0.1c-1.6,0.4-3.1,1.1-4.3,2.2C1.1,14,1,14.1,0.9,14.2l0,0c0,0.4,0,0.8,0.1,1.2
		c0.1,0.5,0.3,1,0.6,1.5C2,16.4,2.4,16,2.8,15.6C2.9,15.5,3,15.3,3.1,15.2z"/>
	<path class="st1" d="M13.7,16.6c-1.7-0.8-3.2-2-4.2-3.6c-0.1-0.1-0.2-0.3-0.2-0.4c-0.1,0.1-0.2,0.2-0.3,0.2
		c-0.5,0.4-0.9,0.8-1.3,1.3c0.1,0.2,0.2,0.3,0.3,0.4c0.6,0.8,1.4,1.4,2.3,1.8c0.9,0.4,1.9,0.5,2.8,0.4
		C13.2,16.7,13.5,16.7,13.7,16.6z"/>
</g>
</svg>
