<svg width="32" height="32" viewBox="0 0 32 32" fill="none" xmlns="http://www.w3.org/2000/svg">
<g clip-path="url(#clip0_537_17958)">
<path d="M14.2582 13.5L1.87917 25.879C1.5969 26.1568 1.37242 26.4877 1.21869 26.8526C1.06495 27.2176 0.984988 27.6094 0.983422 28.0054C0.981856 28.4014 1.05871 28.7938 1.20956 29.16C1.36041 29.5262 1.58227 29.8588 1.86233 30.1388C2.14239 30.4188 2.47512 30.6406 2.84132 30.7914C3.20752 30.9421 3.59995 31.0189 3.99597 31.0173C4.39198 31.0156 4.78375 30.9355 5.14868 30.7817C5.51361 30.6279 5.84446 30.4033 6.12217 30.121L18.5002 17.742L14.2582 13.5Z" fill="url(#paint0_linear_537_17958)"/>
<path d="M31.6828 21.9938C30.4471 17.8375 28.3773 13.9766 25.5998 10.6468L27.1258 9.12079C27.4081 8.84302 27.6325 8.51211 27.7863 8.14715C27.94 7.78218 28.02 7.39039 28.0215 6.99438C28.0231 6.59836 27.9462 6.20595 27.7954 5.83978C27.6445 5.47362 27.4227 5.14094 27.1426 4.86095C26.8626 4.58095 26.5298 4.35917 26.1636 4.20841C25.7974 4.05765 25.405 3.98088 25.009 3.98254C24.613 3.9842 24.2212 4.06425 23.8563 4.21808C23.4914 4.3719 23.1605 4.59646 22.8828 4.87879L21.3568 6.39979C18.0327 3.61612 14.1743 1.54192 10.0188 0.304791C9.8465 0.25412 9.66374 0.250781 9.48972 0.295123C9.31569 0.339465 9.15682 0.429852 9.02979 0.556791L7.29279 2.29279C7.10532 2.48032 7 2.73463 7 2.99979C7 3.26496 7.10532 3.51926 7.29279 3.70679L28.2928 24.7068C28.4803 24.8943 28.7346 24.9996 28.9998 24.9996C29.2649 24.9996 29.5193 24.8943 29.7068 24.7068L31.4308 22.9828C31.5577 22.8558 31.6481 22.6969 31.6925 22.5229C31.7368 22.3488 31.7335 22.1661 31.6828 21.9938Z" fill="url(#paint1_linear_537_17958)"/>
</g>
<defs>
<linearGradient id="paint0_linear_537_17958" x1="8.72207" y1="9.17344" x2="19.494" y2="13.2588" gradientUnits="userSpaceOnUse">
<stop stop-color="#40C4FF"/>
<stop offset="1" stop-color="#2979FF"/>
</linearGradient>
<linearGradient id="paint1_linear_537_17958" x1="17.9225" y1="-5.84519" x2="33.1279" y2="-0.0810979" gradientUnits="userSpaceOnUse">
<stop stop-color="#40C4FF"/>
<stop offset="1" stop-color="#2979FF"/>
</linearGradient>
<clipPath id="clip0_537_17958">
<rect width="32" height="32" fill="white"/>
</clipPath>
</defs>
</svg>
