<svg width="24" height="24" viewBox="0 0 24 24" fill="none" xmlns="http://www.w3.org/2000/svg">
<path fill-rule="evenodd" clip-rule="evenodd" d="M12.0999 3C14.2645 3 15.4625 3.61535 16.4569 4.56747C17.4512 5.51959 18 6.69153 18 8.40699C18 9.18674 17.9504 9.95212 17.7209 10.658C17.4991 11.3557 17.132 11.9754 16.6195 12.5171C16.107 13.0506 15.745 13.2172 14.8278 13.7135C13.9941 14.0254 12.991 14.2531 11.7672 14.2531H9.97736V15.9041H11.9201V18.197H9.97736V21H7.71908V18.197H6V15.9041H7.71908V14.2531H6V11.9605H7.71908V3H12.0999ZM9.97736 5.25834H11.9163C13.1554 5.25834 14.0656 5.70451 14.6469 6.21341C15.2359 6.7223 15.5304 7.49795 15.5304 8.54036C15.5304 9.32011 15.3736 10.1178 15.06 10.5939C14.7464 11.07 14.2874 11.4188 13.6832 11.6404C13.0789 11.8538 12.3447 11.9605 11.4803 11.9605H9.97736V5.25834Z" fill="#3579f4"></path>
</svg>