<svg width="32" height="32" viewBox="0 0 32 32" fill="none" xmlns="http://www.w3.org/2000/svg">
<path d="M30 8H19.949C19.979 8.33 20 8.662 20 9C20.0033 11.2044 19.3433 13.3587 18.1058 15.1829C16.8683 17.0071 15.1105 18.4168 13.0611 19.2286C11.0116 20.0404 8.76534 20.2168 6.61431 19.7348C4.46329 19.2528 2.50706 18.1347 1 16.526V27C1 28.3261 1.52678 29.5979 2.46447 30.5355C2.92876 30.9998 3.47995 31.3681 4.08658 31.6194C4.69321 31.8707 5.34339 32 6 32H30C30.2652 32 30.5196 31.8946 30.7071 31.7071C30.8946 31.5196 31 31.2652 31 31V9C31 8.73478 30.8946 8.48043 30.7071 8.29289C30.5196 8.10536 30.2652 8 30 8ZM25 22C24.6044 22 24.2178 21.8827 23.8889 21.6629C23.56 21.4432 23.3036 21.1308 23.1522 20.7654C23.0009 20.3999 22.9613 19.9978 23.0384 19.6098C23.1156 19.2219 23.3061 18.8655 23.5858 18.5858C23.8655 18.3061 24.2219 18.1156 24.6098 18.0384C24.9978 17.9613 25.3999 18.0009 25.7654 18.1522C26.1308 18.3036 26.4432 18.56 26.6629 18.8889C26.8827 19.2178 27 19.6044 27 20C27 20.5304 26.7893 21.0391 26.4142 21.4142C26.0391 21.7893 25.5304 22 25 22Z" fill="url(#paint0_linear_537_17945)"/>
<path d="M9 0C7.21997 0 5.47991 0.527841 3.99987 1.51677C2.51983 2.50571 1.36628 3.91131 0.685088 5.55585C0.00389957 7.20038 -0.17433 9.00998 0.172937 10.7558C0.520203 12.5016 1.37737 14.1053 2.63604 15.364C3.89472 16.6226 5.49836 17.4798 7.24419 17.8271C8.99002 18.1743 10.7996 17.9961 12.4442 17.3149C14.0887 16.6337 15.4943 15.4802 16.4832 14.0001C17.4722 12.5201 18 10.78 18 9C18 6.61305 17.0518 4.32387 15.364 2.63604C13.6761 0.948212 11.387 0 9 0ZM12.707 6.707L6.707 12.707C6.5184 12.8892 6.2658 12.99 6.0036 12.9877C5.74141 12.9854 5.49059 12.8802 5.30519 12.6948C5.11978 12.5094 5.01461 12.2586 5.01233 11.9964C5.01005 11.7342 5.11085 11.4816 5.293 11.293L11.293 5.293C11.3853 5.19749 11.4956 5.12131 11.6176 5.0689C11.7396 5.01649 11.8708 4.9889 12.0036 4.98775C12.1364 4.9866 12.2681 5.0119 12.391 5.06218C12.5139 5.11246 12.6255 5.18671 12.7194 5.2806C12.8133 5.3745 12.8875 5.48615 12.9378 5.60905C12.9881 5.73194 13.0134 5.86362 13.0123 5.9964C13.0111 6.12918 12.9835 6.2604 12.9311 6.3824C12.8787 6.50441 12.8025 6.61475 12.707 6.707Z" fill="url(#paint1_linear_537_17945)"/>
<defs>
<linearGradient id="paint0_linear_537_17945" x1="14.2536" y1="2.07229" x2="31.4832" y2="10.2405" gradientUnits="userSpaceOnUse">
<stop stop-color="#40C4FF"/>
<stop offset="1" stop-color="#2979FF"/>
</linearGradient>
<linearGradient id="paint1_linear_537_17945" x1="7.95215" y1="-4.44579" x2="19.0212" y2="-0.247685" gradientUnits="userSpaceOnUse">
<stop stop-color="#40C4FF"/>
<stop offset="1" stop-color="#2979FF"/>
</linearGradient>
</defs>
</svg>
