<?xml version="1.0" encoding="utf-8"?>
<!-- Generator: Adobe Illustrator 26.5.0, SVG Export Plug-In . SVG Version: 6.00 Build 0)  -->
<svg version="1.1" id="Слой_1" xmlns="http://www.w3.org/2000/svg" xmlns:xlink="http://www.w3.org/1999/xlink" x="0px" y="0px"
	 viewBox="0 0 250 60" style="enable-background:new 0 0 250 60;" xml:space="preserve">
<style type="text/css">
	.st0{fill:url(#SVGID_1_);}
	.st1{fill:#FFFFFF;}
	.st2{fill-rule:evenodd;clip-rule:evenodd;fill:#FFFFFF;}
</style>
<linearGradient id="SVGID_1_" gradientUnits="userSpaceOnUse" x1="1.352" y1="30.0351" x2="248.648" y2="30.0351">
	<stop  offset="5.327789e-09" style="stop-color:#FF894C"/>
	<stop  offset="1" style="stop-color:#FF3963"/>
</linearGradient>
<path class="st0" d="M242,1.5H8C4.3,1.5,1.4,5,1.4,9.3v34.3c0,4.3,3,7.8,6.7,7.8h105.5h22.2h79l10.5,7.1l10.5-7.1h6.4
	c3.7,0,6.7-3.5,6.7-7.8V9.3C248.6,5,245.7,1.5,242,1.5z"/>
<g>
	<path class="st1" d="M68.2,14.6h3.1v20.1h-3.1V14.6z M70.1,14.6h12.1v2.7H70.1V14.6z M80.6,14.6h3.1v20.1h-3.1V14.6z"/>
	<path class="st1" d="M92.1,34.2c-1-0.5-1.7-1.2-2.2-2.1c-0.5-0.9-0.8-2.1-0.8-3.4v-2.3c0-1.3,0.3-2.4,0.8-3.3
		c0.5-0.9,1.2-1.6,2.2-2.1c1-0.5,2.1-0.7,3.5-0.7s2.5,0.2,3.5,0.7s1.7,1.2,2.2,2.1c0.5,0.9,0.8,2,0.8,3.3v2.4c0,1.3-0.3,2.4-0.8,3.4
		s-1.2,1.6-2.2,2.1c-1,0.5-2.1,0.7-3.5,0.7S93.1,34.7,92.1,34.2z M98.1,31.3c0.6-0.6,0.9-1.5,0.9-2.6v-2.4c0-1.1-0.3-2-0.9-2.6
		s-1.4-0.9-2.5-0.9c-1.1,0-1.9,0.3-2.5,0.9c-0.6,0.6-0.9,1.5-0.9,2.6v2.4c0,1.1,0.3,2,0.9,2.6c0.6,0.6,1.4,0.9,2.5,0.9
		C96.7,32.2,97.5,31.9,98.1,31.3z"/>
	<path class="st1" d="M105.5,32.2h15v2.5h-15V32.2z M105.5,32.2h3.1v6.2h-3.1V32.2z M106.1,32.2h0.4c0.6,0,1.1-0.2,1.4-0.5
		c0.3-0.3,0.5-0.8,0.7-1.4c0.1-0.6,0.2-1.5,0.2-2.6v-7.3h3.1v8.2c0,1.7-0.4,2.9-1.1,3.8c-0.7,0.9-1.8,1.3-3.1,1.3h-0.4L106.1,32.2z
		 M110.6,20.3h6.9v2.5h-6.9V20.3z M116.5,20.3h3.1v14.4h-3.1V20.3z M119.3,32.2h3.1v6.2h-3.1V32.2z"/>
	<path class="st1" d="M125.8,32.2h15v2.5h-15V32.2z M125.8,32.2h3.1v6.2h-3.1V32.2z M126.4,32.2h0.4c0.6,0,1.1-0.2,1.4-0.5
		c0.3-0.3,0.5-0.8,0.7-1.4c0.1-0.6,0.2-1.5,0.2-2.6v-7.3h3.1v8.2c0,1.7-0.4,2.9-1.1,3.8c-0.7,0.9-1.8,1.3-3.1,1.3h-0.4L126.4,32.2z
		 M130.9,20.3h6.9v2.5h-6.9V20.3z M136.8,20.3h3.1v14.4h-3.1V20.3z M139.6,32.2h3.1v6.2h-3.1V32.2z"/>
	<path class="st1" d="M149.4,34.2c-1-0.5-1.8-1.2-2.3-2.2s-0.8-2.1-0.8-3.5v-1.6c0-1.4,0.3-2.6,0.8-3.6c0.5-1,1.3-1.8,2.2-2.3
		c1-0.5,2.2-0.8,3.5-0.8c1.3,0,2.4,0.3,3.3,0.9c0.9,0.6,1.6,1.5,2.1,2.6c0.5,1.1,0.7,2.5,0.7,4.1v0.9h-10.5v-2.3h7.6
		c-0.1-1.2-0.4-2.1-1-2.7s-1.3-1-2.3-1c-1.2,0-2.1,0.4-2.7,1.1s-1,1.7-1,3v1.8c0,1.2,0.3,2.1,1,2.7c0.7,0.6,1.6,1,2.9,1
		c0.6,0,1.2-0.1,1.8-0.3c0.6-0.2,1.2-0.6,1.6-1l2,1.9c-0.8,0.7-1.6,1.2-2.6,1.6c-1,0.4-1.9,0.6-2.9,0.6
		C151.6,34.9,150.4,34.7,149.4,34.2z"/>
	<path class="st1" d="M164.1,20.3h3.1v20.2h-3.1V20.3z M168.5,34.3c-0.7-0.4-1.3-1-1.6-1.8l0.2-3c0,0.6,0.1,1.1,0.4,1.6
		c0.2,0.4,0.6,0.8,1,1c0.5,0.2,1,0.3,1.7,0.3c1,0,1.8-0.3,2.3-0.9s0.8-1.4,0.8-2.4V26c0-1.1-0.3-1.9-0.8-2.4
		c-0.6-0.6-1.3-0.9-2.3-0.9c-0.7,0-1.2,0.1-1.7,0.3c-0.5,0.2-0.8,0.5-1,1s-0.4,0.9-0.4,1.5l-0.3-2.8c0.5-0.8,1.1-1.5,1.8-1.9
		s1.6-0.7,2.5-0.7c1.1,0,2,0.2,2.8,0.7c0.8,0.5,1.4,1.1,1.8,2c0.4,0.9,0.6,1.9,0.6,3.2v3.1c0,1.2-0.2,2.3-0.6,3.1
		c-0.4,0.9-1,1.5-1.8,2c-0.8,0.5-1.8,0.7-2.9,0.7C170.1,34.9,169.3,34.7,168.5,34.3z"/>
	<path class="st1" d="M184.8,27.1l2.2,1.5l-4.2,6.2h-3.9L184.8,27.1z M179.8,20.3h3.5l3.8,6l-1.2,2.5L179.8,20.3z M184.8,26.1H195
		v2.5h-10.3V26.1z M188.4,20.3h3.1v14.4h-3.1V20.3z M192.6,26.3l3.8-6h3.5l-6.1,8.5L192.6,26.3z M192.8,28.5l2.2-1.5l5.9,7.7h-3.9
		L192.8,28.5z"/>
	<path class="st1" d="M204.2,20.3h3.1v14.4h-3.1V20.3z M205.7,26.2h5.6v2.7h-5.6V26.2z M208.8,26.5l4.2-6.1h3.7l-6.5,8.6L208.8,26.5
		z M208.9,28.6l2.4-1.5l6.3,7.5h-4.1L208.9,28.6z"/>
	<path class="st1" d="M221.6,33.8c-1-0.7-1.4-1.8-1.4-3.3c0-1.4,0.4-2.5,1.3-3.2c0.9-0.7,2.2-1.1,3.9-1.1h4.4l0.2,2.3h-4.6
		c-0.8,0-1.4,0.2-1.8,0.5c-0.4,0.3-0.6,0.8-0.6,1.5c0,0.7,0.3,1.3,0.8,1.6s1.3,0.5,2.4,0.5c1.2,0,2-0.1,2.6-0.3
		c0.6-0.2,0.9-0.6,0.9-1.1l0.3,2c-0.3,0.4-0.6,0.7-1,1s-0.9,0.4-1.4,0.6c-0.5,0.1-1.1,0.2-1.8,0.2C224,34.9,222.6,34.5,221.6,33.8z
		 M229.7,25.6c0-0.9-0.3-1.7-0.8-2.2c-0.5-0.5-1.3-0.8-2.3-0.8c-0.6,0-1.2,0.1-1.8,0.3c-0.6,0.2-1.1,0.4-1.6,0.7l-2.2-1.4
		c0.6-0.7,1.4-1.2,2.3-1.5s2-0.5,3.2-0.5c1.3,0,2.4,0.2,3.3,0.6c0.9,0.4,1.6,1,2.1,1.8s0.7,1.8,0.7,2.9v9.2h-2.9V25.6z"/>
</g>
<g>
	<g transform="translate(1.000000, 0.000000)">
		<g transform="translate(0.000000, 2.000000)">
			<path class="st2" d="M29.9,34.1c-3.6,0-7.2-2-9.4-4.6C10.3,29.5,10,42.9,10,42.9h39.8c0,0,0.8-13.5-10.7-13.5
				C37,32.1,33.5,34.1,29.9,34.1z"/>
			<path class="st2" d="M38.4,18c0,3.9-3.8,11.2-8.6,11.2c-4.7,0-8.6-7.4-8.6-11.2s3.8-7,8.6-7C34.6,11,38.4,14.2,38.4,18L38.4,18z"
				/>
		</g>
		<path class="st2" d="M46,17.7c0-0.7-1.4-1.3-3.2-1.3v-1.5c0-0.2,0.1-5.4-12.9-5.4c-13,0-12.9,5.2-12.9,5.4v1.5c0,0-0.1,0-0.1,0
			c-1.8,0-3.2,0.6-3.2,1.3V24c0,0.7,1.4,1.3,3.2,1.3s3.2-0.6,3.2-1.3v-6.3c0-0.1-0.1-0.2-0.1-0.3v-1.7c0-0.2-0.9-4.1,9.9-4.1
			c10.9,0,9.7,3.9,9.7,4.1v1.8c0,0.1-0.1,0.1-0.1,0.2v6.4c0,0.7,1.4,1.3,3.2,1.3c0,0,0.1,0,0.1,0v2.4h-3.2V30H46L46,17.7L46,17.7z"
			/>
	</g>
</g>
</svg>
